HIERARCHY
ROOT Hips
{
	OFFSET 0.00000 0.00000 0.00000
	CHANNELS 6 Xposition Yposition Zposition Zrotation Yrotation Xrotation 
	JOINT LHipJoint
	{
		OFFSET 0 0 0
		CHANNELS 3 Zrotation Yrotation Xrotation
		JOINT LeftUpLeg
		{
			OFFSET 1.57338 -1.94743 0.52196
			CHANNELS 3 Zrotation Yrotation Xrotation
			JOINT LeftLeg
			{
				OFFSET 2.60333 -7.15259 0.00000
				CHANNELS 3 Zrotation Yrotation Xrotation
				JOINT LeftFoot
				{
					OFFSET 2.77855 -7.63400 0.00000
					CHANNELS 3 Zrotation Yrotation Xrotation
					JOINT LeftToeBase
					{
						OFFSET 0.19847 -0.54529 2.28466
						CHANNELS 3 Zrotation Yrotation Xrotation
						End Site
						{
							OFFSET 0.00000 -0.00000 1.17993
						}
					}
				}
			}
		}
	}
	JOINT RHipJoint
	{
		OFFSET 0 0 0
		CHANNELS 3 Zrotation Yrotation Xrotation
		JOINT RightUpLeg
		{
			OFFSET -1.61527 -1.94743 0.52196
			CHANNELS 3 Zrotation Yrotation Xrotation
			JOINT RightLeg
			{
				OFFSET -2.53829 -6.97390 0.00000
				CHANNELS 3 Zrotation Yrotation Xrotation
				JOINT RightFoot
				{
					OFFSET -2.80762 -7.71387 0.00000
					CHANNELS 3 Zrotation Yrotation Xrotation
					JOINT RightToeBase
					{
						OFFSET -0.30536 -0.83898 2.28801
						CHANNELS 3 Zrotation Yrotation Xrotation
						End Site
						{
							OFFSET -0.00000 -0.00000 1.21323
						}
					}
				}
			}
		}
	}
	JOINT LowerBack
	{
		OFFSET 0 0 0
		CHANNELS 3 Zrotation Yrotation Xrotation
		JOINT Spine
		{
			OFFSET -0.04381 1.99497 -0.19778
			CHANNELS 3 Zrotation Yrotation Xrotation
			JOINT Spine1
			{
				OFFSET -0.01959 2.01295 -0.04372
				CHANNELS 3 Zrotation Yrotation Xrotation
				JOINT Neck
				{
					OFFSET 0 0 0
					CHANNELS 3 Zrotation Yrotation Xrotation
					JOINT Neck1
					{
						OFFSET -0.05459 1.76913 0.09708
						CHANNELS 3 Zrotation Yrotation Xrotation
						JOINT Head
						{
							OFFSET 0.09461 1.77368 -0.11172
							CHANNELS 3 Zrotation Yrotation Xrotation
							End Site
							{
								OFFSET 0.03812 1.78157 -0.04834
							}
						}
					}
				}
				JOINT LeftShoulder
				{
					OFFSET 0 0 0
					CHANNELS 3 Zrotation Yrotation Xrotation
					JOINT LeftArm
					{
						OFFSET 3.50922 1.24034 -0.28866
						CHANNELS 3 Zrotation Yrotation Xrotation
						JOINT LeftForeArm
						{
							OFFSET 5.40188 -0.00000 0.00000
							CHANNELS 3 Zrotation Yrotation Xrotation
							JOINT LeftHand
							{
								OFFSET 3.68559 -0.00000 0.00000
								CHANNELS 3 Zrotation Yrotation Xrotation
								JOINT LeftFingerBase
								{
									OFFSET 0 0 0
									CHANNELS 3 Zrotation Yrotation Xrotation
									JOINT LeftHandIndex1
									{
										OFFSET 0.61753 -0.00000 0.00000
										CHANNELS 3 Zrotation Yrotation Xrotation
										End Site
										{
											OFFSET 0.49787 -0.00000 0.00000
										}
									}
								}
								JOINT LThumb
								{
									OFFSET 0 0 0
									CHANNELS 3 Zrotation Yrotation Xrotation
									End Site
									{
										OFFSET 0.50547 -0.00000 0.50547
									}
								}
							}
						}
					}
				}
				JOINT RightShoulder
				{
					OFFSET 0 0 0
					CHANNELS 3 Zrotation Yrotation Xrotation
					JOINT RightArm
					{
						OFFSET -2.95373 1.39649 -0.27346
						CHANNELS 3 Zrotation Yrotation Xrotation
						JOINT RightForeArm
						{
							OFFSET -6.10670 -0.00000 -0.00000
							CHANNELS 3 Zrotation Yrotation Xrotation
							JOINT RightHand
							{
								OFFSET -3.63052 -0.00000 0.00000
								CHANNELS 3 Zrotation Yrotation Xrotation
								JOINT RightFingerBase
								{
									OFFSET 0 0 0
									CHANNELS 3 Zrotation Yrotation Xrotation
									JOINT RightHandIndex1
									{
										OFFSET -0.58385 -0.00000 0.00000
										CHANNELS 3 Zrotation Yrotation Xrotation
										End Site
										{
											OFFSET -0.47071 -0.00000 0.00000
										}
									}
								}
								JOINT RThumb
								{
									OFFSET 0 0 0
									CHANNELS 3 Zrotation Yrotation Xrotation
									End Site
									{
										OFFSET -0.47790 -0.00000 0.47790
									}
								}
							}
						}
					}
				}
			}
		}
	}
}
MOTION
Frames: 13
Frame Time: .0083333
-1.5620 26.8295 -4.7322 181.1360 14.2704 183.7810 0.0000 0.0000 0.0000 -22.5194 0.9473 -49.5627 14.8355 19.3481 74.7406 3.7607 -5.0913 -35.6903 0.3025 3.5360 9.7747 0.0000 0.0000 0.0000 23.3056 15.1503 -1.2872 -3.0849 -10.8312 31.7129 0.0296 -4.1988 1.5427 -0.6306 5.0813 -14.1406 -1.3366 1.7913 12.0153 -0.8839 2.4802 3.2179 -0.5388 1.3633 -3.3753 -6.1108 1.8511 -4.3136 4.5400 3.2363 16.9677 2.6694 1.8296 5.6501 0.0000 0.0000 0.0000 -77.5010 -10.9292 15.1773 14.5168 -23.4686 -3.0309 -0.0000 -0.0000 2.3925 30.7024 17.4223 10.0815 -7.1250 0.0000 -0.0000 2.7512 50.0102 0.3400 0.0000 0.0000 0.0000 84.1727 14.5284 43.8966 -29.0480 40.0633 -10.7916 0.0000 0.0000 6.8995 -27.3540 2.3382 -1.2091 7.1250 -0.0000 -0.0000 -0.5876 -27.3474 -0.2520
-1.5707 26.8771 -4.7760 181.3350 14.1575 183.8940 0.0000 0.0000 0.0000 -22.4062 1.1144 -49.2166 14.6811 19.3077 74.2742 3.7522 -5.5767 -35.5718 0.3537 3.8210 10.5737 0.0000 0.0000 0.0000 23.4142 15.2728 -1.3296 -3.0605 -10.7924 31.5827 0.0089 -4.3954 2.7260 -0.7264 5.4457 -15.1842 -1.2778 1.7837 11.9561 -0.8837 2.4751 3.1978 -0.5690 1.3593 -3.3617 -6.0742 1.8126 -4.3235 4.5623 3.1781 16.9811 2.6678 1.8054 5.6592 0.0000 -0.0000 0.0000 -77.4396 -10.9864 15.1629 14.4456 -23.3681 -3.0026 -0.0000 -0.0000 2.5073 30.5608 17.6696 10.1610 -7.1250 0.0000 -0.0000 2.5773 50.2639 0.3346 0.0000 -0.0000 0.0000 84.3443 14.3405 43.8358 -29.3048 40.2900 -10.9573 0.0000 0.0000 6.9894 -27.3290 2.4113 -1.2455 7.1250 -0.0000 -0.0000 -0.5669 -27.2658 -0.2442
-1.5781 26.9198 -4.8153 181.3460 14.1305 183.9600 0.0000 0.0000 0.0000 -22.3718 1.2184 -48.8145 14.5119 19.2620 73.7619 3.7305 -7.1993 -35.2524 0.6259 5.0627 14.0874 0.0000 0.0000 0.0000 23.3134 15.4736 -1.4291 -3.0389 -10.7577 31.4671 -0.0126 -4.7914 3.7799 -0.7255 5.4426 -15.1753 -1.4938 1.8041 11.9088 -0.8887 2.4728 3.1591 -0.4518 1.3577 -3.3844 -6.0802 1.8259 -4.3383 4.5820 3.2005 17.0403 2.6781 1.8191 5.6785 0.0000 -0.0000 0.0000 -77.4868 -10.9921 14.8946 14.3473 -23.2291 -2.9637 -0.0000 -0.0000 2.7613 30.4360 17.4991 10.0190 -7.1250 0.0000 -0.0000 2.4731 50.0497 0.3080 0.0000 -0.0000 0.0000 84.3728 14.1864 44.0735 -29.4848 40.4476 -11.0738 0.0000 0.0000 6.6052 -27.2658 2.5334 -1.3050 7.1250 -0.0000 -0.0000 -0.5156 -27.1301 -0.2237
-1.5849 26.9623 -4.8496 181.2040 14.0491 183.9730 0.0000 0.0000 0.0000 -22.5392 1.2870 -48.3991 14.3083 19.2049 73.1439 3.6756 -8.2913 -34.8726 0.8377 5.8384 16.3163 0.0000 0.0000 0.0000 23.0681 15.6437 -1.5406 -3.0203 -10.7278 31.3674 -0.0143 -5.8850 4.5168 -0.5190 4.6170 -12.8194 -1.8566 1.8020 11.9258 -0.9507 2.4242 3.1343 -0.3069 1.3361 -3.4305 -6.0474 1.8333 -4.3492 4.5427 3.2144 17.0474 2.6614 1.8252 5.6832 -0.0000 -0.0000 0.0000 -77.4890 -11.0975 14.4918 14.1725 -22.9807 -2.8951 -0.0000 -0.0000 3.0329 30.5333 16.8458 9.6998 -7.1250 0.0000 -0.0000 2.6498 49.3299 0.2831 -0.0000 -0.0000 0.0000 84.4741 14.1128 44.3413 -29.6062 40.5534 -11.1527 0.0000 0.0000 6.2246 -27.5618 2.6552 -1.3851 7.1250 -0.0000 -0.0000 -0.7392 -26.9850 -0.3233
-1.5940 27.0096 -4.8858 181.1540 13.8516 183.9830 0.0000 0.0000 0.0000 -22.9980 1.6068 -48.1875 14.1261 19.1518 72.5893 3.6711 -5.6866 -35.1474 0.2881 3.4516 9.5388 0.0000 0.0000 0.0000 22.9171 15.6391 -1.6022 -3.0119 -10.7143 31.3223 -0.0186 -6.8066 5.2123 -0.3640 3.8757 -10.7272 -2.0387 1.7673 11.9839 -1.0002 2.3539 3.1136 -0.2485 1.3032 -3.4879 -6.0459 1.8050 -4.4451 4.5069 3.1880 17.1177 2.6519 1.8103 5.7242 0.0000 -0.0000 0.0000 -77.4587 -11.2503 14.2670 13.9981 -22.7320 -2.8274 -0.0000 -0.0000 3.1909 30.6320 16.5786 9.5901 -7.1250 0.0000 -0.0000 2.7784 49.0447 0.2773 0.0000 -0.0000 0.0000 84.6253 13.9983 44.2358 -29.8363 40.7527 -11.3026 0.0000 0.0000 6.6784 -27.5369 2.4283 -1.2655 7.1250 -0.0000 -0.0000 -0.7259 -27.2414 -0.3132
-1.6030 27.0568 -4.9235 181.3490 13.6866 184.0200 0.0000 0.0000 0.0000 -22.6250 1.4671 -47.6249 13.9350 19.0942 72.0060 3.6193 -8.1145 -34.6038 0.7538 5.5451 15.4702 0.0000 0.0000 0.0000 23.0379 15.6824 -1.6293 -3.0071 -10.7065 31.2964 -0.0417 -7.5806 6.1851 -0.2696 3.3404 -9.2278 -1.9383 1.7501 12.0100 -0.9978 2.3438 3.1189 -0.3017 1.2981 -3.4928 -6.0095 1.7999 -4.4532 4.4885 3.1781 17.0868 2.6388 1.8058 5.7173 -0.0000 0.0000 0.0000 -77.4333 -11.3141 14.3197 14.0020 -22.7376 -2.8289 -0.0000 -0.0000 3.0135 30.6425 16.8635 9.7511 -7.1250 0.0000 -0.0000 2.7568 49.3686 0.2972 -0.0000 0.0000 0.0000 84.7488 13.8755 44.0307 -30.0352 40.9235 -11.4327 0.0000 0.0000 7.1400 -27.4147 2.4371 -1.2635 7.1250 -0.0000 -0.0000 -0.6320 -27.2346 -0.2727
-1.6108 27.0996 -4.9622 181.5500 13.5243 184.0580 0.0000 0.0000 0.0000 -22.7817 1.8150 -47.3913 13.7723 19.0435 71.5080 3.6109 -5.8159 -34.8233 0.2931 3.4814 9.6221 0.0000 0.0000 0.0000 23.1754 15.7612 -1.6849 -3.0078 -10.7077 31.3002 -0.0711 -8.2602 7.1280 -0.2219 3.0324 -8.3691 -1.7975 1.7431 11.9404 -1.0229 2.3558 3.1524 -0.4051 1.3041 -3.4136 -5.9287 1.7784 -4.4112 4.5011 3.1310 16.9973 2.6238 1.7873 5.6853 -0.0000 -0.0000 0.0000 -77.3966 -11.4123 14.3739 13.9873 -22.7165 -2.8232 -0.0000 -0.0000 2.8018 30.6248 17.0417 9.8423 -7.1250 0.0000 -0.0000 2.7185 49.5669 0.3063 -0.0000 -0.0000 0.0000 84.8557 13.8405 44.0592 -30.0778 40.9600 -11.4606 0.0000 0.0000 7.0456 -27.5173 2.5549 -1.3303 7.1250 -0.0000 -0.0000 -0.7078 -27.0993 -0.3077
-1.6187 27.1452 -5.0021 181.7200 13.3339 184.0880 0.0000 0.0000 0.0000 -22.5248 1.7136 -46.8516 13.5826 18.9825 70.9256 3.5578 -7.4763 -34.3506 0.6280 5.0709 14.1109 0.0000 0.0000 0.0000 23.2599 15.7356 -1.7651 -3.0147 -10.7188 31.3374 -0.1054 -8.6896 7.9380 -0.1971 2.8587 -7.8857 -1.7241 1.7135 11.8793 -1.0182 2.3279 3.1668 -0.4346 1.2899 -3.3624 -5.9804 1.7892 -4.4199 4.5940 3.1371 16.9897 2.6620 1.7940 5.6812 0.0000 -0.0000 0.0000 -77.4382 -11.4971 14.2836 13.9147 -22.6127 -2.7952 -0.0000 -0.0000 2.6732 30.5536 16.9213 9.7490 -7.1250 0.0000 -0.0000 2.6614 49.4186 0.2902 0.0000 -0.0000 0.0000 84.9163 13.7461 44.1569 -30.1438 41.0163 -11.5039 0.0000 0.0000 6.8783 -27.5311 2.2766 -1.1862 7.1250 -0.0000 -0.0000 -0.7250 -27.4125 -0.3098
-1.6254 27.1849 -5.0376 181.9270 13.0953 184.1330 0.0000 0.0000 0.0000 -22.5452 1.8551 -46.5821 13.4219 18.9292 70.4309 3.5234 -5.9434 -34.3574 0.3435 3.7662 10.4198 0.0000 0.0000 0.0000 23.3938 15.7192 -1.8889 -3.0340 -10.7499 31.4410 -0.1274 -9.4984 8.7005 -0.1117 2.1549 -5.9338 -1.6797 1.6613 11.8766 -0.9547 2.2651 3.1648 -0.3843 1.2580 -3.3637 -6.1396 1.8269 -4.5275 4.6553 3.1983 17.0142 2.7136 1.8177 5.7004 -0.0000 0.0000 0.0000 -77.5344 -11.5986 14.1456 13.8342 -22.4972 -2.7644 -0.0000 -0.0000 2.6301 30.5350 16.9970 9.7834 -7.1250 0.0000 -0.0000 2.6339 49.5009 0.2925 -0.0000 0.0000 0.0000 84.9157 13.5966 44.2398 -30.2358 41.0947 -11.5643 0.0000 0.0000 6.4124 -27.2650 2.6096 -1.3442 7.1250 -0.0000 -0.0000 -0.5133 -27.0445 -0.2238
-1.6322 27.2243 -5.0712 182.0450 12.8665 184.1760 0.0000 0.0000 0.0000 -22.2610 1.6003 -46.0093 13.2362 18.8658 69.8576 3.4698 -8.4736 -33.8138 0.8675 5.9386 16.6065 0.0000 0.0000 0.0000 23.4289 15.6717 -2.0939 -3.0637 -10.7975 31.5999 -0.1540 -10.2271 9.4539 -0.0565 1.5338 -4.2189 -1.7157 1.6460 11.8010 -0.9018 2.2448 3.1848 -0.3029 1.2479 -3.3047 -6.2312 1.8218 -4.5323 4.5744 3.2094 16.9599 2.7025 1.8103 5.6843 0.0000 -0.0000 0.0000 -77.6261 -11.8366 14.1259 13.6815 -22.2776 -2.7062 -0.0000 -0.0000 2.5321 30.4861 17.4671 10.0212 -7.1250 0.0000 -0.0000 2.5276 50.0226 0.3131 0.0000 -0.0000 0.0000 84.8792 13.5071 44.2409 -30.2406 41.0987 -11.5674 0.0000 0.0000 5.9302 -27.5132 3.1710 -1.6504 7.1250 -0.0000 -0.0000 -0.6881 -26.4053 -0.3103
-1.6406 27.2682 -5.1091 181.9960 12.6761 184.0850 0.0000 0.0000 0.0000 -22.4369 1.6969 -45.4993 13.0578 18.8029 69.3051 3.4620 -8.5075 -33.7713 0.8312 5.8162 16.2522 0.0000 0.0000 0.0000 23.2926 15.5411 -2.2017 -3.0986 -10.8530 31.7858 -0.1894 -10.6955 10.1585 -0.0294 1.1064 -3.0417 -1.8617 1.6568 11.7792 -0.9367 2.2432 3.1871 -0.2562 1.2486 -3.2940 -6.1903 1.7218 -4.6048 4.5416 3.0907 17.1294 2.6846 1.7567 5.7581 0.0000 -0.0000 0.0000 -77.7105 -11.9411 13.9978 13.5798 -22.1308 -2.6678 -0.0000 -0.0000 2.5273 30.1522 18.0787 10.2187 -7.1250 0.0000 -0.0000 2.1083 50.6505 0.2937 0.0000 -0.0000 0.0000 84.8440 13.3448 44.2557 -30.2091 41.0719 -11.5467 0.0000 0.0000 5.8025 -27.8041 3.3112 -1.7446 7.1250 -0.0000 -0.0000 -0.9050 -26.2374 -0.4117
-1.6491 27.3134 -5.1509 181.8470 12.4869 183.9820 0.0000 0.0000 0.0000 -22.9888 2.0266 -45.1005 12.8926 18.7431 68.7917 3.4867 -6.1291 -34.1426 0.3279 3.6805 10.1795 0.0000 0.0000 0.0000 23.0233 15.3364 -2.3255 -3.1447 -10.9257 32.0298 -0.2235 -11.0441 10.7543 -0.0070 0.5392 -1.4815 -2.1232 1.6315 11.7140 -1.0114 2.1818 3.2003 -0.1756 1.2206 -3.2497 -6.1376 1.6453 -4.9590 4.5860 3.0107 17.5197 2.7016 1.7296 5.9463 0.0000 0.0000 0.0000 -77.8368 -11.9261 13.5380 13.6011 -22.1616 -2.6758 -0.0000 -0.0000 2.7948 30.0142 18.2976 10.2796 -7.1250 0.0000 -0.0000 1.9364 50.8707 0.2802 0.0000 0.0000 0.0000 84.8691 13.2512 44.4092 -30.1231 40.9987 -11.4903 0.0000 0.0000 5.7991 -27.5958 3.1107 -1.6247 7.1250 -0.0000 -0.0000 -0.7527 -26.4706 -0.3383
-1.6568 27.3555 -5.1886 182.1030 12.3401 183.9800 0.0000 0.0000 0.0000 -22.6828 1.9783 -44.5700 12.7244 18.6804 68.2672 3.4485 -7.1330 -33.8240 0.5208 4.6250 12.8421 0.0000 0.0000 0.0000 23.2222 15.2489 -2.4536 -3.1893 -10.9954 32.2642 -0.2556 -11.3353 11.2756 -0.0008 0.1788 -0.4913 -1.9660 1.6216 11.6901 -0.9803 2.1876 3.1997 -0.2315 1.2222 -3.2333 -6.1447 1.7020 -4.7505 4.5898 3.0699 17.3023 2.6983 1.7564 5.8382 -0.0000 0.0000 0.0000 -77.9987 -11.9261 13.1211 13.6431 -22.2222 -2.6917 -0.0000 -0.0000 3.1249 29.9624 18.4355 10.3317 -7.1250 0.0000 -0.0000 1.8632 51.0156 0.2762 -0.0000 0.0000 0.0000 84.9256 13.1983 44.4247 -29.9792 40.8755 -11.3960 0.0000 0.0000 6.0476 -27.3020 2.6687 -1.3768 7.1250 -0.0000 -0.0000 -0.5401 -26.9769 -0.2363
